<?xml version="1.0" encoding="UTF-8" standalone="no"?>
<svg width="90px" height="20px" viewBox="0 0 90 20" version="1.1" xmlns="http://www.w3.org/2000/svg" xmlns:xlink="http://www.w3.org/1999/xlink" xmlns:sketch="http://www.bohemiancoding.com/sketch/ns">
    <!-- Generator: Sketch 3.2.2 (9983) - http://www.bohemiancoding.com/sketch -->
    <title>SOLDA</title>
    <desc>Created with Sketch.</desc>
    <defs></defs>
    <g id="-Official-Site" stroke="none" stroke-width="1" fill="none" fill-rule="evenodd" sketch:type="MSPage">
        <g id="Home" sketch:type="MSArtboardGroup" transform="translate(-178.000000, -107.000000)" fill="#000000">
            <path d="M191.404255,121.25 C191.404255,117.472222 187.875322,115.777778 185.655509,114.916667 C183.407237,114.027778 182.553463,113.25 182.553463,112.222222 C182.553463,111.472222 183.321859,110.805556 184.346388,110.805556 C186.082396,110.805556 188.159913,112.333333 188.416046,112.472222 C188.672178,112.666667 189.184442,112.416667 189.383656,112.111111 L190.835073,109.972222 C190.948909,109.777778 191.005827,109.277778 190.664318,109.083333 C189.810543,108.472222 187.533812,107 184.574062,107 C180.191354,107 178,109.777778 178,112.527778 C178,115.861111 181.073587,117.722222 183.521073,118.666667 C185.456295,119.416667 186.452365,120.305556 186.452365,121.472222 C186.452365,122.444444 185.62705,123.138889 184.488684,123.138889 C182.610381,123.138889 180.561323,121.666667 180.447486,121.611111 C180.248272,121.472222 179.707548,121.416667 179.479875,121.777778 L178.142296,124.083333 C177.914623,124.472222 178,124.583333 178.284591,124.861111 C178.939152,125.5 180.98821,127 184.687898,127 C188.871392,127 191.404255,124.111111 191.404255,121.25 L191.404255,121.25 Z M203.314898,127 C208.883561,127 213.338491,122.583333 213.338491,117.027778 C213.338491,111.472222 208.883561,107 203.314898,107 C197.746236,107 193.319149,111.472222 193.319149,117.027778 C193.319149,122.583333 197.746236,127 203.314898,127 L203.314898,127 Z M217.363384,127 L228.114372,127 C228.428896,127 228.65764,126.747329 228.65764,126.466584 L228.65764,123.40646 C228.65764,123.125714 228.428896,122.873043 228.114372,122.873043 L221.309225,122.873043 L221.309225,107.881242 C221.309225,107.600497 221.051888,107.347826 220.765957,107.347826 L217.363384,107.347826 C217.04886,107.347826 216.820116,107.600497 216.820116,107.881242 L216.820116,126.466584 C216.820116,126.747329 217.04886,127 217.363384,127 L217.363384,127 Z M231.780027,127 L238.709199,127 C244.19006,127 248.676983,122.592298 248.676983,117.145839 C248.676983,111.755528 244.19006,107.347826 238.709199,107.347826 L231.780027,107.347826 C231.496045,107.347826 231.268859,107.600497 231.268859,107.881242 L231.268859,126.466584 C231.268859,126.747329 231.496045,127 231.780027,127 L231.780027,127 Z M235.62089,111.521739 L238.377475,111.521739 C241.622206,111.521739 243.976789,113.967687 243.976789,117.073215 C243.976789,120.206227 241.622206,122.652174 238.377475,122.652174 L235.62089,122.652174 L235.62089,111.521739 L235.62089,111.521739 Z M267.943592,125.932517 L259.131923,107.30447 C259.047466,107.138396 258.8504,107 258.653334,107 L258.371811,107 C258.174745,107 257.977679,107.138396 257.893222,107.30447 L249.081553,125.932517 C248.912639,126.292345 249.137857,126.652174 249.560142,126.652174 L267.465003,126.652174 C267.887288,126.652174 268.112506,126.292345 267.943592,125.932517 L267.943592,125.932517 Z M258.571278,115.521739 L258.599613,115.521739 L262.081238,123 L255.117988,123 L258.571278,115.521739 L258.571278,115.521739 Z M205.02162,109.681685 C204.112028,109.809397 197.380257,116.019912 197.488098,116.786499 C197.595939,117.553087 202.902035,119.319193 202.902035,119.319193 C202.902035,119.319193 199.098665,123.183582 200.229871,124.053001 C202.74422,123.699974 208.596774,119.132209 208.673865,117.66345 C208.750957,116.194691 203.932527,114.934213 203.932527,114.934213 C203.932527,114.934213 205.931211,109.553974 205.02162,109.681685 L205.02162,109.681685 Z" id="SOLDA" sketch:type="MSShapeGroup"></path>
        </g>
    </g>
</svg>