<?xml version="1.0" encoding="UTF-8" standalone="no"?>
<svg width="36px" height="35px" viewBox="0 0 36 35" version="1.1" xmlns="http://www.w3.org/2000/svg" xmlns:xlink="http://www.w3.org/1999/xlink" xmlns:sketch="http://www.bohemiancoding.com/sketch/ns">
    <!-- Generator: Sketch 3.2.2 (9983) - http://www.bohemiancoding.com/sketch -->
    <title>rating-bad</title>
    <desc>Created with Sketch.</desc>
    <defs></defs>
    <g id="-Official-Site" stroke="none" stroke-width="1" fill="none" fill-rule="evenodd" sketch:type="MSPage">
        <g id="Market-Place-3" sketch:type="MSArtboardGroup" transform="translate(-465.000000, -522.000000)">
            <g id="Group" sketch:type="MSLayerGroup" transform="translate(254.000000, 522.000000)">
                <g id="rating-bad" transform="translate(211.929006, 0.000000)" sketch:type="MSShapeGroup">
                    <ellipse id="Oval-19" fill="#FFD6D6" cx="17.535497" cy="17.5" rx="17.535497" ry="17.5"></ellipse>
                    <path d="M15.6566937,14.1603427 L8.04747019,16.4867158 C7.46966536,16.6633684 6.85660302,16.3387371 6.67999255,15.7610703 C6.50215078,15.1793761 6.82928051,14.571703 7.40790709,14.3947991 L11.9157366,13.0166173 L7.09477322,11.5427009 C6.51696838,11.3660482 6.1902482,10.7540966 6.36685867,10.1764297 C6.54470044,9.5947355 7.15570974,9.27388034 7.73433632,9.45078423 L15.6566937,11.872892 L23.5790511,9.45078423 C24.1568559,9.27413157 24.7699183,9.59876289 24.9465288,10.1764297 C25.1243705,10.7581239 24.7972408,11.365797 24.2186142,11.5427009 L19.3976508,13.0166173 L23.9054803,14.3947991 C24.4832852,14.5714518 24.8100054,15.1834034 24.6333949,15.7610703 C24.4555531,16.3427645 23.8445438,16.6636197 23.2659172,16.4867158 L15.6566937,14.1603427 Z" id="Rectangle-9" opacity="0.4" fill="#C01313"></path>
                    <path d="M16.7605302,21.101602 L12.3766559,25.476602 C11.6862342,26.165626 12.175219,27.34375 13.1516227,27.34375 L21.9193712,27.34375 C22.8957749,27.34375 23.3847597,26.165626 22.694338,25.476602 L18.3104638,21.101602 C17.8824614,20.674466 17.1885325,20.674466 16.7605302,21.101602 Z" id="Triangle-1" fill="#FFFFFF"></path>
                </g>
            </g>
        </g>
    </g>
</svg>