<?xml version="1.0" encoding="UTF-8" standalone="no"?>
<svg width="36px" height="35px" viewBox="0 0 36 35" version="1.1" xmlns="http://www.w3.org/2000/svg" xmlns:xlink="http://www.w3.org/1999/xlink" xmlns:sketch="http://www.bohemiancoding.com/sketch/ns">
    <!-- Generator: Sketch 3.2.2 (9983) - http://www.bohemiancoding.com/sketch -->
    <title>rating-okay</title>
    <desc>Created with Sketch.</desc>
    <defs></defs>
    <g id="-Official-Site" stroke="none" stroke-width="1" fill="none" fill-rule="evenodd" sketch:type="MSPage">
        <g id="Market-Place-3" sketch:type="MSArtboardGroup" transform="translate(-364.000000, -522.000000)">
            <g id="Group" sketch:type="MSLayerGroup" transform="translate(254.000000, 522.000000)">
                <g id="rating-okay" transform="translate(110.724138, 0.000000)" sketch:type="MSShapeGroup">
                    <path d="M17.535497,35 C27.220085,35 35.0709939,27.1649836 35.0709939,17.5 C35.0709939,7.8350164 27.220085,0 17.535497,0 C7.85090893,0 -7.10542736e-14,7.8350164 -7.10542736e-14,17.5 C-7.10542736e-14,27.1649836 7.85090893,35 17.535497,35 Z" id="Oval-19" fill="#CFE8FF"></path>
                    <path d="M8.76774848,17.5 C9.97832198,17.5 10.9596856,16.520623 10.9596856,15.3125 C10.9596856,14.104377 9.97832198,13.125 8.76774848,13.125 C7.55717498,13.125 6.57581136,14.104377 6.57581136,15.3125 C6.57581136,16.520623 7.55717498,17.5 8.76774848,17.5 Z" id="Oval-20" opacity="0.7" fill="#2B2B2B"></path>
                    <path d="M24.1113083,15.3125 C25.3218818,15.3125 26.3032454,14.333123 26.3032454,13.125 C26.3032454,11.916877 25.3218818,10.9375 24.1113083,10.9375 C22.9007348,10.9375 21.9193712,11.916877 21.9193712,13.125 C21.9193712,14.333123 22.9007348,15.3125 24.1113083,15.3125 Z" id="Oval-20" opacity="0.8" fill="#2B2B2B"></path>
                    <path d="M11.6778349,24.9710066 C11.2190852,25.0436654 10.9068018,25.4789093 10.97852,25.9317201 L11.0580705,26.4339823 C11.1305993,26.8919109 11.5633847,27.2039012 12.0200353,27.1315749 L23.3221651,25.3414934 C23.7809148,25.2688346 24.0931982,24.8335907 24.02148,24.3807799 L23.9419295,23.8785177 C23.8694007,23.4205891 23.4366153,23.1085988 22.9799647,23.1809251 L11.6778349,24.9710066 L11.6778349,24.9710066 Z" id="Rectangle-7" opacity="0.7" fill="#3A3A3A"></path>
                </g>
            </g>
        </g>
    </g>
</svg>