<?xml version="1.0" encoding="UTF-8" standalone="no"?>
<svg width="20px" height="30px" viewBox="0 0 20 30" version="1.1" xmlns="http://www.w3.org/2000/svg" xmlns:xlink="http://www.w3.org/1999/xlink" xmlns:sketch="http://www.bohemiancoding.com/sketch/ns">
    <!-- Generator: Sketch 3.2.2 (9983) - http://www.bohemiancoding.com/sketch -->
    <title>left</title>
    <desc>Created with Sketch.</desc>
    <defs></defs>
    <g id="-Official-Site" stroke="none" stroke-width="1" fill="none" fill-rule="evenodd" sketch:type="MSPage">
        <g id="Channels" sketch:type="MSArtboardGroup" transform="translate(-14.000000, -235.000000)" fill="#000000" opacity="0.6">
            <g id="go-left" sketch:type="MSLayerGroup" transform="translate(27.000000, 250.000000) scale(-1, 1) translate(-27.000000, -250.000000) translate(0.000000, 178.000000)">
                <path d="M25.0086937,57 C24.8350821,57 24.6961929,57.0694446 24.5573036,57.1736116 L20.1822921,61.548623 C19.939236,61.7916792 19.939236,62.208347 20.1822921,62.4514032 L29.7309283,72.0000393 L20.1822921,81.5486755 C19.939236,81.7917317 19.939236,82.2083994 20.1822921,82.4514556 L24.5573036,86.8264671 C24.8003598,87.0695233 25.2170276,87.0695233 25.4600838,86.8264671 L39.8351215,72.4514294 C40.0781777,72.2083732 40.0781777,71.7917055 39.8351215,71.5486493 L25.4600838,57.1736116 C25.3211945,57.0694446 25.1823053,57 25.0086937,57 L25.0086937,57 Z" id="left" sketch:type="MSShapeGroup"></path>
            </g>
        </g>
    </g>
</svg>