<?xml version="1.0" encoding="UTF-8" standalone="no"?>
<svg width="190px" height="38px" viewBox="0 0 190 38" version="1.1" xmlns="http://www.w3.org/2000/svg" xmlns:xlink="http://www.w3.org/1999/xlink" xmlns:sketch="http://www.bohemiancoding.com/sketch/ns">
    <!-- Generator: Sketch 3.2.2 (9983) - http://www.bohemiancoding.com/sketch -->
    <title>3</title>
    <desc>Created with Sketch.</desc>
    <defs>
        <path id="path-1" d="M7.94774485,6.99401309 L10.2887166,4.84128582 L1.16512658,0.229197363 C0.988110631,0.139959034 0.820501329,0.0978951521 0.670422591,0.0978951521 C0.601155482,0.0978951521 0.535736545,0.106543801 0.47502093,0.124234218 L7.94774485,6.99401309 Z"></path>
        <path id="path-3" d="M7.94774485,6.99401309 L10.3006887,9.15735461 L13.4147156,7.58290744 C14.0462435,7.2621212 14.0462435,6.74123668 13.4147156,6.4216298 L10.2891442,4.84128582 L7.94774485,6.99401309 L7.94774485,6.99401309 Z"></path>
        <path id="path-5" d="M0.0175159468,0.853079427 L0.0192262458,13.1514578 C0.0192262458,13.5378952 0.193249169,13.792244 0.462621262,13.8771581 L7.94774485,6.99519245 L0.474593355,0.124234218 C0.197097342,0.203644538 0.0175159468,0.462317756 0.0175159468,0.853079427 L0.0175159468,0.853079427 Z"></path>
        <path id="path-7" d="M0.462621262,13.8771581 C0.657167774,13.9380917 0.900457807,13.9093939 1.16512658,13.775733 L10.2998336,9.15735461 L7.94774485,6.99519245 L0.462621262,13.8771581 L0.462621262,13.8771581 Z"></path>
    </defs>
    <g id="-Official-Site" stroke="none" stroke-width="1" fill="none" fill-rule="evenodd" sketch:type="MSPage">
        <g id="3" sketch:type="MSLayerGroup" transform="translate(0.500000, 0.000000)">
            <rect id="Rectangle-15" fill="#FFFFFF" sketch:type="MSShapeGroup" x="0" y="0" width="189" height="38" rx="4"></rect>
            <g id="Group" transform="translate(21.000000, 12.000000)">
                <mask id="mask-2" sketch:name="Shape" fill="white">
                    <use xlink:href="#path-1"></use>
                </mask>
                <g id="Shape"></g>
                <path d="M2.48389538,8.15010154 L0.473866478,0.11963471 L8.67265508,-1.61512696 L10.682684,6.41533987 L2.48389538,8.15010154 L2.48389538,8.15010154 Z" id="Shape" opacity="0.8" fill="#000000" sketch:type="MSShapeGroup" mask="url(#mask-2)"></path>
                <mask id="mask-4" sketch:name="Shape" fill="white">
                    <use xlink:href="#path-3"></use>
                </mask>
                <g id="Shape"></g>
                <path d="M12.1859513,3.82015559 L14.2932535,7.12912857 L9.63187628,9.63853397 L7.52457412,6.329561 L12.1859513,3.82015559 L12.1859513,3.82015559 Z" id="Shape" fill="#000000" sketch:type="MSShapeGroup" mask="url(#mask-4)"></path>
                <mask id="mask-6" sketch:name="Shape" fill="white">
                    <use xlink:href="#path-5"></use>
                </mask>
                <g id="Shape"></g>
                <path d="M0.136766545,13.9547993 L-3.49529711,1.07023913 L5.66240056,-1.11197217 L9.29447704,11.772588 L0.136766545,13.9547993 L0.136766545,13.9547993 Z" id="Shape" fill="#000000" sketch:type="MSShapeGroup" mask="url(#mask-6)"></path>
                <mask id="mask-8" sketch:name="Shape" fill="white">
                    <use xlink:href="#path-7"></use>
                </mask>
                <g id="Shape"></g>
                <path d="M10.8216885,12.6598608 L0.475405748,13.9629369 L-0.405954086,8.04730056 L9.94028595,6.74422439 L10.8216885,12.6598608 L10.8216885,12.6598608 Z" id="Shape" opacity="0.8" fill="#000000" sketch:type="MSShapeGroup" mask="url(#mask-8)"></path>
            </g>
            <text id="GOOGLE-PLAY-下載" sketch:type="MSTextLayer" font-family="Hiragino Sans GB" font-size="12" font-weight="526" fill="#000000">
                <tspan x="43.5" y="23.4146576">GOOGLE PLAY 下載</tspan>
            </text>
        </g>
    </g>
</svg>