<?xml version="1.0" encoding="UTF-8" standalone="no"?>
<svg width="170px" height="38px" viewBox="0 0 170 38" version="1.1" xmlns="http://www.w3.org/2000/svg" xmlns:xlink="http://www.w3.org/1999/xlink" xmlns:sketch="http://www.bohemiancoding.com/sketch/ns">
    <!-- Generator: Sketch 3.2.2 (9983) - http://www.bohemiancoding.com/sketch -->
    <title>app-store</title>
    <desc>Created with Sketch.</desc>
    <defs></defs>
    <g id="-Official-Site" stroke="none" stroke-width="1" fill="none" fill-rule="evenodd" sketch:type="MSPage">
        <g id="Home-2" sketch:type="MSArtboardGroup" transform="translate(-323.000000, -784.000000)">
            <g id="app-store" sketch:type="MSLayerGroup" transform="translate(323.000000, 784.000000)">
                <text id="APP-STORE-下載" sketch:type="MSTextLayer" font-family="Hiragino Sans GB" font-size="12" font-weight="526" fill="#4990E2">
                    <tspan x="43.5" y="23.934">APP STORE 下載</tspan>
                </text>
                <path d="M30.8728337,18.6024844 C30.8547963,16.6125878 32.5142348,15.6444966 32.5901162,15.599426 C31.6503067,14.2392826 30.1936332,14.0534437 29.6817449,14.0386259 C28.4583133,13.9108231 27.2715783,14.7653117 26.6483559,14.7653117 C26.0126939,14.7653117 25.0529812,14.050974 24.018631,14.0719658 C22.6875971,14.0923402 21.4423962,14.8573051 20.7594638,16.0451925 C19.3500606,18.4672727 20.4012042,22.026613 21.7515195,23.9844046 C22.4269881,24.9432347 23.2162788,26.0138151 24.249385,25.9761534 C25.2601,25.9347873 25.6376409,25.3365217 26.8573407,25.3365217 C28.0658448,25.3365217 28.4203726,25.9761534 29.4740041,25.9520746 C30.5587345,25.9347873 31.2416669,24.9889227 31.8935003,24.0214489 C32.6740833,22.9224678 32.9875604,21.8401567 33,21.7845902 C32.9744989,21.7759466 30.8933589,20.9875203 30.8728337,18.6024844 Z M28.6411557,12.8457354 C29.1847649,12.1709116 29.556708,11.2528303 29.4534596,10.321166 C28.6666569,10.3557407 27.6826869,10.8613954 27.1160645,11.5214015 C26.6147499,12.1029971 26.1669254,13.0562706 26.2826134,13.9527427 C27.1664448,14.0181877 28.0739114,13.5100633 28.6411557,12.8457354 Z" id="Shape-3" fill="#4990E2" sketch:type="MSShapeGroup"></path>
                <rect id="Rectangle-15" stroke="#4990E2" stroke-width="2" sketch:type="MSShapeGroup" x="0" y="0" width="170" height="38" rx="4"></rect>
            </g>
        </g>
    </g>
</svg>