<?xml version="1.0" encoding="UTF-8" standalone="no"?>
<svg width="105px" height="105px" viewBox="0 0 105 105" version="1.1" xmlns="http://www.w3.org/2000/svg" xmlns:xlink="http://www.w3.org/1999/xlink" xmlns:sketch="http://www.bohemiancoding.com/sketch/ns">
    <!-- Generator: Sketch 3.2.2 (9983) - http://www.bohemiancoding.com/sketch -->
    <title>appicon-bw</title>
    <desc>Created with Sketch.</desc>
    <defs></defs>
    <g id="-Official-Site" stroke="none" stroke-width="1" fill="none" fill-rule="evenodd" sketch:type="MSPage">
        <g id="appicon-bw" sketch:type="MSLayerGroup" transform="translate(1.000000, 1.000000)">
            <path d="M35.9100917,0 L67.0899083,0 C77.43025,0 82.5991333,0 88.165425,1.75958333 C94.242425,3.97150833 99.0284917,8.757575 101.240417,14.834575 C103,20.4000083 103,25.5706083 103,35.9100917 L103,67.0899083 C103,77.43025 103,82.5991333 101.240417,88.165425 C99.0284917,94.242425 94.242425,99.0284917 88.165425,101.239558 C82.5991333,103 77.43025,103 67.0899083,103 L35.9100917,103 C25.56975,103 20.4000083,103 14.834575,101.239558 C8.757575,99.0284917 3.97150833,94.242425 1.75958333,88.165425 C0,82.5991333 0,77.43025 0,67.0899083 L0,35.9100917 C0,25.5706083 0,20.4000083 1.75958333,14.834575 C3.97150833,8.757575 8.757575,3.97150833 14.834575,1.75958333 C20.4000083,0 25.56975,0 35.9100917,0 L35.9100917,0" id="Icon-Shape" stroke="#000000" stroke-width="2" opacity="0.4" sketch:type="MSShapeGroup"></path>
            <path d="M91.0249681,44.1572266 L11.9750319,44.1572266 C11.9052478,44.6417887 11.8691406,45.1371408 11.8691406,45.6408691 C11.8691406,51.3766213 16.5506082,56.0263672 22.3254911,56.0263672 C26.7244635,56.0263672 30.4889802,53.3283463 32.0331153,49.5074842 L32.0331153,49.5074842 C33.5772505,53.3283463 37.3417672,56.0263672 41.7407395,56.0263672 C46.1895606,56.0263672 49.9894654,53.2668524 51.5,49.377161 L51.5,49.377161 C53.0105346,53.2668524 56.8104394,56.0263672 61.2592605,56.0263672 C65.6582328,56.0263672 69.4227495,53.3283463 70.9668847,49.5074842 L70.9668847,49.5074842 C72.5110198,53.3283463 76.2755365,56.0263672 80.6745089,56.0263672 C86.4493918,56.0263672 91.1308594,51.3766213 91.1308594,45.6408691 C91.1308594,45.1371408 91.0947522,44.6417887 91.0249681,44.1572266 L91.0249681,44.1572266 L91.0249681,44.1572266 Z M23.2066127,18.8095703 L11.8691406,41.1396484 L91.2314453,41.1396484 L79.8939732,18.8095703 L23.2066127,18.8095703 L23.2066127,18.8095703 Z M19.3125,58.9433594 L19.3125,78.3315746 C19.3125,81.622883 21.997401,84.2910156 25.3046456,84.2910156 L79.2041435,84.2910156 C82.5135141,84.2910156 85.1962891,81.6159131 85.1962891,78.3315746 L85.1962891,58.9433594 L82.2015714,58.9433594 L82.2015714,78.3315746 C82.2015714,79.9710738 80.8574506,81.3089384 79.2041435,81.3089384 L25.3046456,81.3089384 C23.6496069,81.3089384 22.3072177,79.974203 22.3072177,78.3315746 L22.3072177,58.9433594 L19.3125,58.9433594 L19.3125,58.9433594 Z M38.4596789,70.1311196 C41.3661791,73.5075108 45.5517946,75.5400391 51.1295563,75.5400391 C56.6833464,75.5400391 61.0081788,73.5450136 64.184762,70.2323544 C66.0916908,68.2437381 67.2004136,66.2494907 67.6943359,64.8561177 L64.8660456,63.8720703 C64.7848517,64.1011213 64.5840574,64.5566142 64.2475336,65.1619158 C63.6750465,66.191642 62.9343135,67.2245331 62.0115041,68.1868731 C59.3799904,70.9311135 55.8267051,72.5702278 51.1295563,72.5702278 C46.4563791,72.5702278 43.0932067,70.9370766 40.7404929,68.2040019 C39.9159085,67.2461077 39.2765569,66.2167773 38.8029094,65.1900899 C38.5244801,64.5865613 38.3670465,64.1331158 38.3080192,63.9074661 L35.40625,64.6525099 C35.7781472,66.0741992 36.7144439,68.1037342 38.4596789,70.1311196 L38.4596789,70.1311196 L38.4596789,70.1311196 Z" id="Rectangle-14" fill-opacity="0.886916893" fill="#000000" sketch:type="MSShapeGroup"></path>
        </g>
    </g>
</svg>