<?xml version="1.0" encoding="UTF-8" standalone="no"?>
<svg width="101px" height="82px" viewBox="0 0 101 82" version="1.1" xmlns="http://www.w3.org/2000/svg" xmlns:xlink="http://www.w3.org/1999/xlink" xmlns:sketch="http://www.bohemiancoding.com/sketch/ns">
    <!-- Generator: Sketch 3.2.2 (9983) - http://www.bohemiancoding.com/sketch -->
    <title>appicon-bw2</title>
    <desc>Created with Sketch.</desc>
    <defs></defs>
    <g id="-Official-Site" stroke="none" stroke-width="1" fill="none" fill-rule="evenodd" sketch:type="MSPage">
        <g id="appicon-bw2" sketch:type="MSLayerGroup" transform="translate(-14.000000, -24.000000)" fill-opacity="0.886916893" fill="#000000">
            <path d="M114.002145,55.3037109 L14.9978555,55.3037109 C14.910456,55.9105897 14.8652344,56.5309822 14.8652344,57.1618652 C14.8652344,64.3454772 20.7284316,70.1689453 27.961052,70.1689453 C33.4704445,70.1689453 38.1852276,66.7898706 40.1191444,62.004519 L40.1191444,62.004519 C42.0530613,66.7898706 46.7678443,70.1689453 52.2772369,70.1689453 C57.8490613,70.1689453 62.6081653,66.712854 64.5,61.8412987 L64.5,61.8412987 C66.3918347,66.712854 71.1509387,70.1689453 76.7227631,70.1689453 C82.2321557,70.1689453 86.9469387,66.7898706 88.8808556,62.004519 L88.8808556,62.004519 C90.8147724,66.7898706 95.5295555,70.1689453 101.038948,70.1689453 C108.271568,70.1689453 114.134766,64.3454772 114.134766,57.1618652 C114.134766,56.5309822 114.089544,55.9105897 114.002145,55.3037109 L114.002145,55.3037109 L114.002145,55.3037109 Z M29.0645926,24.3369141 L14.8652344,52.3037109 L114.260742,52.3037109 L100.061384,24.3369141 L29.0645926,24.3369141 L29.0645926,24.3369141 Z M24.1875,73.8222656 L24.1875,98.1045934 C24.1875,102.226718 27.550143,105.568359 31.692226,105.568359 L99.1974224,105.568359 C103.342168,105.568359 106.702148,102.217988 106.702148,98.1045934 L106.702148,73.8222656 L102.951483,73.8222656 L102.951483,98.1045934 C102.951483,100.157947 101.268069,101.833525 99.1974224,101.833525 L31.692226,101.833525 C29.6194106,101.833525 27.9381658,100.161866 27.9381658,98.1045934 L27.9381658,73.8222656 L24.1875,73.8222656 L24.1875,73.8222656 Z M48.1679474,87.8341206 C51.8081272,92.0628047 57.0503059,94.6083984 64.0360462,94.6083984 C70.9917639,94.6083984 76.4083016,92.1097743 80.3867408,87.9609098 C82.7750302,85.4703127 84.1636248,82.9726631 84.7822266,81.2275649 L81.2399989,79.9951172 C81.1383094,80.2819868 80.8868292,80.8524585 80.4653576,81.6105547 C79.7483592,82.9002118 78.820645,84.1938328 77.6648935,85.3990934 C74.3691142,88.8360547 69.9188831,90.8889261 64.0360462,90.8889261 C58.183232,90.8889261 53.9711035,88.8435231 51.0245008,85.420546 C49.9917689,84.2208534 49.1910275,82.931692 48.5978186,81.6458408 C48.2491062,80.8899651 48.051932,80.3220577 47.9780046,80.0394478 L44.34375,80.972561 C44.8095241,82.7531233 45.9821677,85.2949681 48.1679474,87.8341206 L48.1679474,87.8341206 L48.1679474,87.8341206 Z" id="Rectangle-14" sketch:type="MSShapeGroup"></path>
        </g>
    </g>
</svg>