<?xml version="1.0" encoding="UTF-8" standalone="no"?>
<svg width="189px" height="38px" viewBox="0 0 189 38" version="1.1" xmlns="http://www.w3.org/2000/svg" xmlns:xlink="http://www.w3.org/1999/xlink" xmlns:sketch="http://www.bohemiancoding.com/sketch/ns">
    <!-- Generator: Sketch 3.2.2 (9983) - http://www.bohemiancoding.com/sketch -->
    <title>google-play</title>
    <desc>Created with Sketch.</desc>
    <defs>
        <path id="path-1" d="M0.47502093,0.470462458 L7.94774485,7.34024133 L10.2887166,5.18751406 L1.16512658,0.575425603 C0.988110631,0.486187274 0.820501329,0.444123392 0.670422591,0.444123392 C0.601155482,0.444123392 0.535736545,0.452772041 0.47502093,0.470462458 L0.47502093,0.470462458 Z"></path>
        <path id="path-3" d="M7.94774485,7.34024133 L10.3006887,9.50358285 L13.4147156,7.92913568 C14.0462435,7.60834944 14.0462435,7.08746492 13.4147156,6.76785804 L10.2891442,5.18751406 L7.94774485,7.34024133 L7.94774485,7.34024133 Z"></path>
        <path id="path-5" d="M0.0175159468,1.19930767 L0.0192262458,13.497686 C0.0192262458,13.8841234 0.193249169,14.1384723 0.462621262,14.2233863 L7.94774485,7.34142069 L0.474593355,0.470462458 C0.197097342,0.549872778 0.0175159468,0.808545996 0.0175159468,1.19930767 L0.0175159468,1.19930767 Z"></path>
        <path id="path-7" d="M0.462621262,14.2233863 C0.657167774,14.28432 0.900457807,14.2556222 1.16512658,14.1219612 L10.2998336,9.50358285 L7.94774485,7.34142069 L0.462621262,14.2233863 L0.462621262,14.2233863 Z"></path>
    </defs>
    <g id="-Official-Site" stroke="none" stroke-width="1" fill="none" fill-rule="evenodd" sketch:type="MSPage">
        <g id="Home-2" sketch:type="MSArtboardGroup" transform="translate(-513.000000, -784.000000)">
            <g id="google-play" sketch:type="MSLayerGroup" transform="translate(513.000000, 784.000000)">
                <g id="Group" transform="translate(21.000000, 11.653772)">
                    <mask id="mask-2" sketch:name="Shape" fill="white">
                        <use xlink:href="#path-1"></use>
                    </mask>
                    <g id="Shape"></g>
                    <path d="M2.48389538,8.49632978 L0.473866478,0.46586295 L8.67265508,-1.26889872 L10.682684,6.76156811 L2.48389538,8.49632978 L2.48389538,8.49632978 Z" id="Shape" fill="#B8E986" sketch:type="MSShapeGroup" mask="url(#mask-2)"></path>
                    <mask id="mask-4" sketch:name="Shape" fill="white">
                        <use xlink:href="#path-3"></use>
                    </mask>
                    <g id="Shape"></g>
                    <path d="M12.1859513,4.16638383 L14.2932535,7.47535681 L9.63187628,9.98476221 L7.52457412,6.67578924 L12.1859513,4.16638383 L12.1859513,4.16638383 Z" id="Shape" fill="#8DBC45" sketch:type="MSShapeGroup" mask="url(#mask-4)"></path>
                    <mask id="mask-6" sketch:name="Shape" fill="white">
                        <use xlink:href="#path-5"></use>
                    </mask>
                    <g id="Shape"></g>
                    <path d="M0.136766545,14.3010276 L-3.49529711,1.41646737 L5.66240056,-0.76574393 L9.29447704,12.1188163 L0.136766545,14.3010276 L0.136766545,14.3010276 Z" id="Shape" fill="#8DBC45" sketch:type="MSShapeGroup" mask="url(#mask-6)"></path>
                    <mask id="mask-8" sketch:name="Shape" fill="white">
                        <use xlink:href="#path-7"></use>
                    </mask>
                    <g id="Shape"></g>
                    <path d="M10.8216885,13.006089 L0.475405748,14.3091652 L-0.405954086,8.3935288 L9.94028595,7.09045263 L10.8216885,13.006089 L10.8216885,13.006089 Z" id="Shape" fill-opacity="0.66052423" fill="#7ED321" sketch:type="MSShapeGroup" mask="url(#mask-8)"></path>
                </g>
                <text id="GOOGLE-PLAY-下載" sketch:type="MSTextLayer" font-family="Hiragino Sans GB" font-size="12" font-weight="526" fill="#8DBC45">
                    <tspan x="43.5" y="23.4146576">GOOGLE PLAY 下載</tspan>
                </text>
                <rect id="Rectangle-15" stroke="#8DBC45" stroke-width="2" sketch:type="MSShapeGroup" x="0" y="0" width="189" height="38" rx="4"></rect>
            </g>
        </g>
    </g>
</svg>