<?xml version="1.0" encoding="UTF-8" standalone="no"?>
<svg width="90px" height="21px" viewBox="0 0 90 21" version="1.1" xmlns="http://www.w3.org/2000/svg" xmlns:xlink="http://www.w3.org/1999/xlink" xmlns:sketch="http://www.bohemiancoding.com/sketch/ns">
    <!-- Generator: Sketch 3.2.2 (9983) - http://www.bohemiancoding.com/sketch -->
    <title>SOLDA</title>
    <desc>Created with Sketch.</desc>
    <defs></defs>
    <g id="-Official-Site" stroke="none" stroke-width="1" fill="none" fill-rule="evenodd" sketch:type="MSPage">
        <g id="Home-2" sketch:type="MSArtboardGroup" transform="translate(-43.000000, -146.000000)" fill="#000000">
            <path d="M43.428,164.124 C44.072,164.768 46.088,166.28 49.728,166.28 C53.844,166.28 56.336,163.368 56.336,160.484 C56.336,156.676 52.864,154.968 50.68,154.1 C48.468,153.204 47.628,152.42 47.628,151.384 C47.628,150.628 48.384,149.956 49.392,149.956 C51.1,149.956 53.144,151.496 53.396,151.636 C53.648,151.832 54.152,151.58 54.348,151.272 L55.776,149.116 C55.888,148.92 55.944,148.416 55.608,148.22 C54.768,147.604 52.528,146.12 49.616,146.12 C45.304,146.12 43.148,148.92 43.148,151.692 C43.148,155.052 46.172,156.928 48.58,157.88 C50.484,158.636 51.464,159.532 51.464,160.708 C51.464,161.688 50.652,162.388 49.532,162.388 C47.684,162.388 45.668,160.904 45.556,160.848 C45.36,160.708 44.828,160.652 44.604,161.016 L43.288,163.34 C43.064,163.732 43.148,163.844 43.428,164.124 L43.428,164.124 L43.428,164.124 Z M58.324,156.228 C58.324,161.828 62.776,166.28 68.376,166.28 C73.976,166.28 78.456,161.828 78.456,156.228 C78.456,150.628 73.976,146.12 68.376,146.12 C62.776,146.12 58.324,150.628 58.324,156.228 L58.324,156.228 L58.324,156.228 Z M62.804,156.228 C62.804,153.148 65.324,150.6 68.376,150.6 C71.456,150.6 73.976,153.148 73.976,156.228 C73.976,159.28 71.456,161.8 68.376,161.8 C65.324,161.8 62.804,159.28 62.804,156.228 L62.804,156.228 L62.804,156.228 Z M81.844,165.468 C81.844,165.748 82.068,166 82.376,166 L92.904,166 C93.212,166 93.436,165.748 93.436,165.468 L93.436,162.416 C93.436,162.136 93.212,161.884 92.904,161.884 L86.24,161.884 L86.24,146.932 C86.24,146.652 85.988,146.4 85.708,146.4 L82.376,146.4 C82.068,146.4 81.844,146.652 81.844,146.932 L81.844,165.468 L81.844,165.468 Z M96.152,165.468 C96.152,165.748 96.376,166 96.656,166 L103.488,166 C108.892,166 113.316,161.604 113.316,156.172 C113.316,150.796 108.892,146.4 103.488,146.4 L96.656,146.4 C96.376,146.4 96.152,146.652 96.152,146.932 L96.152,165.468 L96.152,165.468 Z M100.52,161.856 L100.52,150.516 L103.208,150.516 C106.372,150.516 108.668,153.008 108.668,156.172 C108.668,159.364 106.372,161.856 103.208,161.856 L100.52,161.856 L100.52,161.856 Z M114.492,166 L117.572,166 C118.132,166 118.44,165.664 118.58,165.328 L119.588,163.088 L127.204,163.088 L128.212,165.3 C128.464,165.832 128.688,166 129.192,166 L132.3,166 C132.72,166 132.944,165.636 132.776,165.272 L124.012,146.428 C123.928,146.26 123.732,146.12 123.536,146.12 L123.256,146.12 C123.06,146.12 122.864,146.26 122.78,146.428 L114.016,165.272 C113.848,165.636 114.072,166 114.492,166 L114.492,166 L114.492,166 Z M121.268,159.28 L123.368,154.66 L123.396,154.66 L125.524,159.28 L121.268,159.28 L121.268,159.28 Z" id="SOLDA" sketch:type="MSShapeGroup"></path>
        </g>
    </g>
</svg>