<?xml version="1.0" encoding="UTF-8" standalone="no"?>
<svg width="98px" height="22px" viewBox="0 0 98 22" version="1.1" xmlns="http://www.w3.org/2000/svg" xmlns:xlink="http://www.w3.org/1999/xlink" xmlns:sketch="http://www.bohemiancoding.com/sketch/ns">
    <!-- Generator: Sketch 3.2.2 (9983) - http://www.bohemiancoding.com/sketch -->
    <title>solda-logo</title>
    <desc>Created with Sketch.</desc>
    <defs></defs>
    <g id="-Official-Site" stroke="none" stroke-width="1" fill="none" fill-rule="evenodd" sketch:type="MSPage">
        <g id="Home-5" sketch:type="MSArtboardGroup" transform="translate(-37.000000, -722.000000)" fill="#FFFFFF" opacity="0.8">
            <path d="M51.6070461,737.675 C51.6070461,733.519444 47.7614543,731.655556 45.3424531,730.708333 C42.892439,729.730556 41.9620539,728.875 41.9620539,727.744444 C41.9620539,726.919444 42.7994005,726.186111 43.9158626,726.186111 C45.8076456,726.186111 48.0715827,727.866667 48.3506982,728.019444 C48.6298138,728.233333 49.1880448,727.958333 49.4051347,727.622222 L50.9867893,725.269444 C51.1108407,725.055556 51.1728664,724.505556 50.8007123,724.291667 C49.8703272,723.619444 47.3893003,722 44.1639653,722 C39.3879884,722 37,725.055556 37,728.080556 C37,731.747222 40.3493864,733.794444 43.0164903,734.833333 C45.1253632,735.658333 46.2108125,736.636111 46.2108125,737.919444 C46.2108125,738.988889 45.3114402,739.752778 44.0709268,739.752778 C42.0240795,739.752778 39.7911553,738.133333 39.667104,738.072222 C39.4500141,737.919444 38.8607702,737.858333 38.6126675,738.255556 L37.1550642,740.791667 C36.9069615,741.219444 37,741.341667 37.3101284,741.647222 C38.0234236,742.35 40.2563479,744 44.2880166,744 C48.8469036,744 51.6070461,740.822222 51.6070461,737.675 L51.6070461,737.675 Z M64.6054517,744 C70.663248,744 75.5094851,739.141667 75.5094851,733.030556 C75.5094851,726.919444 70.663248,722 64.6054517,722 C58.5476554,722 53.7317073,726.919444 53.7317073,733.030556 C53.7317073,739.141667 58.5476554,744 64.6054517,744 L64.6054517,744 Z M79.8248825,744 L91.6439522,744 C91.9897228,744 92.2411924,743.720592 92.2411924,743.410139 L92.2411924,740.026202 C92.2411924,739.715749 91.9897228,739.436341 91.6439522,739.436341 L84.1627325,739.436341 L84.1627325,722.858153 C84.1627325,722.5477 83.8798293,722.268293 83.5654923,722.268293 L79.8248825,722.268293 C79.4791118,722.268293 79.2276423,722.5477 79.2276423,722.858153 L79.2276423,743.410139 C79.2276423,743.720592 79.4791118,744 79.8248825,744 L79.8248825,744 Z M95.4507133,744 L102.956348,744 C108.893182,744 113.753388,739.125889 113.753388,733.103101 C113.753388,727.142404 108.893182,722.268293 102.956348,722.268293 L95.4507133,722.268293 C95.1431053,722.268293 94.897019,722.5477 94.897019,722.858153 L94.897019,743.410139 C94.897019,743.720592 95.1431053,744 95.4507133,744 L95.4507133,744 Z M99.6775068,727.097561 L102.656413,727.097561 C106.162834,727.097561 108.707317,729.809636 108.707317,733.253056 C108.707317,736.72695 106.162834,739.439024 102.656413,739.439024 L99.6775068,739.439024 L99.6775068,727.097561 L99.6775068,727.097561 Z M134.938418,742.935898 L125.318441,722.336688 C125.226237,722.15304 125.011093,722 124.79595,722 L124.488603,722 C124.273459,722 124.058316,722.15304 123.966112,722.336688 L114.346135,742.935898 C114.161726,743.333803 114.407604,743.731707 114.868626,743.731707 L134.415927,743.731707 C134.876948,743.731707 135.122826,743.333803 134.938418,742.935898 L134.938418,742.935898 Z M124.609855,730.853659 L124.642276,730.853659 L128.626016,738.902439 L120.658537,738.902439 L124.609855,730.853659 L124.609855,730.853659 Z M66.4422232,724.992609 C65.4510122,725.133505 58.1182942,732.00753 58.2362737,732.856577 C58.3542531,733.705625 64.1379591,735.664724 64.1379591,735.664724 C64.1379591,735.664724 59.9952712,739.942201 61.22859,740.905743 C63.9685569,740.516271 70.3440595,735.461039 70.4272079,733.834459 C70.5103564,732.207879 65.2584154,730.809046 65.2584154,730.809046 C65.2584154,730.809046 67.4334341,724.851714 66.4422232,724.992609 L66.4422232,724.992609 Z" id="solda-logo" sketch:type="MSShapeGroup"></path>
        </g>
    </g>
</svg>